<svg width="244" height="285" viewBox="0 0 244 285" fill="none" xmlns="http://www.w3.org/2000/svg">
<path d="M243.868 146.197C239.613 226.011 196.767 267.757 141.457 282.722C110.611 288.334 78.4569 284.773 49.2198 258.435C19.9828 232.097 4.01475 201.692 0.291981 136.22C-4.38795 53.9126 47.6976 0.287889 119.952 0.287889C192.207 0.287889 247.059 55.1597 243.868 146.197Z" fill="#fafafa"/>
<path fill-rule="evenodd" clip-rule="evenodd" d="M0.291981 136.22C4.01475 201.692 19.9828 232.097 49.2198 258.435C78.4569 284.773 110.611 288.334 141.457 282.722C196.767 267.757 239.613 226.011 243.868 146.197C247.059 55.1597 192.207 0.287889 119.952 0.287889C47.6976 0.287889 -4.38795 53.9126 0.291981 136.22ZM235.466 145.602C233.454 182.973 222.511 210.802 205.953 231.123C189.297 251.564 166.454 265.009 139.979 272.223C110.553 277.519 80.9175 273.912 54.0961 249.75C40.177 237.21 29.9182 224.17 22.5956 206.949C15.2285 189.623 10.4926 167.262 8.68403 135.455C6.53107 97.5899 17.3552 66.8845 36.7989 45.4243C56.4177 23.7709 85.392 10.9458 119.952 10.9458C154.463 10.9458 184.114 24.0465 204.62 47.0781C224.95 69.912 236.928 103.184 235.466 145.602Z" fill="black"/>
<path d="M3.6107 129.214C8.08048 192.975 63.5315 238.834 127.464 231.643C191.396 224.451 239.601 166.933 235.131 103.172C230.661 39.4102 175.21 -6.44886 111.277 0.74245C47.345 7.93376 -0.859082 65.4522 3.6107 129.214Z" fill="#fff"/>
<path fill-rule="evenodd" clip-rule="evenodd" d="M126.627 219.7C65.6763 226.555 16.871 182.815 13.0391 128.153C9.2072 73.4908 51.1643 19.5414 112.115 12.6856C173.065 5.82969 221.87 49.5698 225.702 104.232C229.534 158.894 187.577 212.844 126.627 219.7ZM127.464 231.643C63.5315 238.834 8.08048 192.975 3.6107 129.214C-0.859082 65.4522 47.345 7.93376 111.277 0.74245C175.21 -6.44886 230.661 39.4102 235.131 103.172C239.601 166.933 191.396 224.451 127.464 231.643Z" fill="black"/>
<path d="M16.9239 125.145C20.7321 179.468 69.8372 218.33 126.603 211.945C183.369 205.56 226.3 156.345 222.492 102.022C218.684 47.6981 169.579 8.83635 112.813 15.2216C56.0466 21.6068 13.1157 70.821 16.9239 125.145Z" fill="#fff"/>
<path fill-rule="evenodd" clip-rule="evenodd" d="M54.6907 185.661C35.9033 170.793 23.8882 149.181 22.1619 124.555C20.4356 99.9295 29.2563 75.9743 45.6815 57.1451C62.1094 38.3129 85.9275 24.9331 113.278 21.8566C140.628 18.7802 165.935 26.6343 184.725 41.5051C203.513 56.3734 215.528 77.985 217.254 102.611C218.98 127.237 210.16 151.192 193.734 170.021C177.307 188.853 153.489 202.233 126.138 205.31C98.7878 208.386 73.4812 200.532 54.6907 185.661ZM126.603 211.945C69.8372 218.33 20.7321 179.468 16.9239 125.145C13.1157 70.821 56.0466 21.6068 112.813 15.2216C169.579 8.83635 218.684 47.6981 222.492 102.022C226.3 156.345 183.369 205.56 126.603 211.945Z" fill="black"/>
<path fill-rule="evenodd" clip-rule="evenodd" d="M174.124 255.153C209.628 238.151 230.88 199.524 237.429 180.398L231.64 177.217C225.568 194.949 205.382 231.638 171.893 247.676C129.709 267.877 96.3219 258.145 74.4201 250.878C52.9408 243.752 34.7072 227.295 27.0375 216.734L22.3935 222.146C30.8502 233.79 50.1281 251.082 72.8213 258.611C95.0918 265.999 130.067 276.251 174.124 255.153Z" fill="black"/>
</svg>
