<svg width="375" height="1104" viewBox="0 0 375 1104" fill="none" xmlns="http://www.w3.org/2000/svg">
<g clip-path="url(#clip0_592_14857)">
<rect width="375" height="1104" fill="url(#paint0_linear_592_14857)"/>
<g clip-path="url(#clip1_592_14857)">
<path d="M0 1H375V1765H0V1Z" fill="#231F20"/>
<g filter="url(#filter0_f_592_14857)">
<path d="M96.7415 43C203.095 74.8747 390.724 169.577 290.412 293.388C165.021 448.152 -26.5416 272.731 96.7415 43Z" fill="#FFD400"/>
</g>
<g filter="url(#filter1_f_592_14857)">
<path d="M351.391 382.108C300.073 295.832 353.022 224.754 385.91 200C406.579 208.358 435.088 219.169 457.639 226.211C465.792 215.203 474.723 211.428 488.246 223.617C503.999 237.816 485.303 234.85 457.639 226.211C444.241 244.3 432.946 281.921 406.839 300.337C364.845 329.96 415.537 489.953 351.391 382.108Z" fill="#FDE499"/>
</g>
<g filter="url(#filter2_f_592_14857)">
<path d="M-1.87617 354.756C44.817 386.619 110.188 458.918 -1.87617 493.213C-141.956 536.082 -170.79 325.761 -1.87617 354.756Z" fill="#FFE14D"/>
</g>
<g filter="url(#filter3_f_592_14857)">
<path d="M494 453.732C470.487 461.976 438.074 480.814 411.879 511.554C385.597 620.737 398.036 804.516 372.776 687.327C355.687 608.046 378.836 550.331 411.879 511.554C425.441 455.213 449.314 418.736 494 453.732Z" fill="#FDE499"/>
</g>
<g filter="url(#filter4_f_592_14857)">
<path d="M72.8709 570.5C-18.4633 605.366 -179.595 708.956 -93.4491 844.387C14.2336 1013.68 178.744 821.791 72.8709 570.5Z" fill="#FFD400"/>
</g>
<g filter="url(#filter5_f_592_14857)">
<path d="M239.124 685.756C285.817 717.619 351.188 789.918 239.124 824.213C99.0442 867.082 70.2097 656.761 239.124 685.756Z" fill="#FFE14D"/>
</g>
</g>
</g>
<defs>
<filter id="filter0_f_592_14857" x="-73" y="-87" width="522" height="569" filterUnits="userSpaceOnUse" color-interpolation-filters="sRGB">
<feFlood flood-opacity="0" result="BackgroundImageFix"/>
<feBlend mode="normal" in="SourceGraphic" in2="BackgroundImageFix" result="shape"/>
<feGaussianBlur stdDeviation="65" result="effect1_foregroundBlur_592_14857"/>
</filter>
<filter id="filter1_f_592_14857" x="270" y="140" width="284" height="339" filterUnits="userSpaceOnUse" color-interpolation-filters="sRGB">
<feFlood flood-opacity="0" result="BackgroundImageFix"/>
<feBlend mode="normal" in="SourceGraphic" in2="BackgroundImageFix" result="shape"/>
<feGaussianBlur stdDeviation="30" result="effect1_foregroundBlur_592_14857"/>
</filter>
<filter id="filter2_f_592_14857" x="-218" y="252" width="378" height="347" filterUnits="userSpaceOnUse" color-interpolation-filters="sRGB">
<feFlood flood-opacity="0" result="BackgroundImageFix"/>
<feBlend mode="normal" in="SourceGraphic" in2="BackgroundImageFix" result="shape"/>
<feGaussianBlur stdDeviation="50" result="effect1_foregroundBlur_592_14857"/>
</filter>
<filter id="filter3_f_592_14857" x="307" y="380" width="247" height="405" filterUnits="userSpaceOnUse" color-interpolation-filters="sRGB">
<feFlood flood-opacity="0" result="BackgroundImageFix"/>
<feBlend mode="normal" in="SourceGraphic" in2="BackgroundImageFix" result="shape"/>
<feGaussianBlur stdDeviation="30" result="effect1_foregroundBlur_592_14857"/>
</filter>
<filter id="filter4_f_592_14857" x="-248" y="440.5" width="485" height="598" filterUnits="userSpaceOnUse" color-interpolation-filters="sRGB">
<feFlood flood-opacity="0" result="BackgroundImageFix"/>
<feBlend mode="normal" in="SourceGraphic" in2="BackgroundImageFix" result="shape"/>
<feGaussianBlur stdDeviation="65" result="effect1_foregroundBlur_592_14857"/>
</filter>
<filter id="filter5_f_592_14857" x="23" y="583" width="378" height="347" filterUnits="userSpaceOnUse" color-interpolation-filters="sRGB">
<feFlood flood-opacity="0" result="BackgroundImageFix"/>
<feBlend mode="normal" in="SourceGraphic" in2="BackgroundImageFix" result="shape"/>
<feGaussianBlur stdDeviation="50" result="effect1_foregroundBlur_592_14857"/>
</filter>
<linearGradient id="paint0_linear_592_14857" x1="187.5" y1="0" x2="187.5" y2="1104" gradientUnits="userSpaceOnUse">
<stop stop-color="#D5B101"/>
<stop offset="0.25" stop-color="#FCDE4E"/>
<stop offset="0.510417" stop-color="#E6BF03"/>
<stop offset="0.744792" stop-color="#FCDE4E"/>
<stop offset="1" stop-color="#C1A100"/>
</linearGradient>
<clipPath id="clip0_592_14857">
<rect width="375" height="1104" fill="white"/>
</clipPath>
<clipPath id="clip1_592_14857">
<path d="M0 1H375V1765H0V1Z" fill="white"/>
</clipPath>
</defs>
</svg>
