<svg width="111" height="110" viewBox="0 0 111 110" fill="none" xmlns="http://www.w3.org/2000/svg">
<path d="M27.45 47.2015C27.4499 45.3975 27.8848 43.6201 28.7179 42.0199C29.5509 40.4198 30.7575 39.0441 32.2353 38.0095L49.0653 26.2285C50.9513 24.9082 53.1978 24.2 55.5 24.2C57.8022 24.2 60.0487 24.9082 61.9347 26.2285L78.7647 38.0095C80.2425 39.0441 81.4491 40.4198 82.2821 42.0199C83.1152 43.6201 83.5501 45.3975 83.55 47.2015V69.4087C83.55 70.8965 82.9589 72.3235 81.9069 73.3755C80.8548 74.4276 79.4279 75.0187 77.94 75.0187H33.06C31.5721 75.0187 30.1452 74.4276 29.0931 73.3755C28.041 72.3235 27.45 70.8965 27.45 69.4087V47.2015Z" fill="white" stroke="#231F20" stroke-width="6" stroke-linecap="round" stroke-linejoin="round"/>
<rect x="42.7226" y="20.0164" width="30.0835" height="20.2603" transform="rotate(15 42.7226 20.0164)" fill="#231F20"/>
<path d="M39.3829 18.2476C39.7043 17.0483 40.4889 16.0258 41.5641 15.4051C42.6393 14.7843 43.9171 14.6161 45.1164 14.9374L72.2475 22.2071C73.4467 22.5285 74.4692 23.3131 75.09 24.3883C75.7108 25.4635 75.879 26.7413 75.5577 27.9406L70.7112 46.028C70.3898 47.2273 69.6052 48.2498 68.53 48.8705C67.4548 49.4913 66.177 49.6596 64.9777 49.3382L37.8466 42.0685C36.6474 41.7471 35.6249 40.9625 35.0041 39.8873C34.3833 38.8121 34.2151 37.5343 34.5364 36.335L39.3829 18.2476ZM44.4294 22.0231C44.1296 21.9427 43.8101 21.9848 43.5413 22.14C43.2725 22.2952 43.0764 22.5508 42.996 22.8506L42.3902 25.1115C42.3099 25.4114 42.352 25.7308 42.5072 25.9996C42.6623 26.2684 42.918 26.4646 43.2178 26.5449L47.7396 27.7565C48.0394 27.8369 48.3589 27.7948 48.6277 27.6396C48.8965 27.4844 49.0927 27.2288 49.173 26.929L49.7788 24.6681C49.8591 24.3682 49.8171 24.0488 49.6619 23.78C49.5067 23.5112 49.2511 23.315 48.9513 23.2347L44.4294 22.0231ZM42.612 28.8058C42.3122 28.7255 41.9927 28.7676 41.7239 28.9228C41.4551 29.0779 41.2589 29.3336 41.1786 29.6334C41.0983 29.9332 41.1403 30.2527 41.2955 30.5215C41.4507 30.7903 41.7063 30.9864 42.0062 31.0668L53.3108 34.0958C53.6106 34.1762 53.93 34.1341 54.1989 33.9789C54.4677 33.8237 54.6638 33.5681 54.7441 33.2683C54.8245 32.9684 54.7824 32.649 54.6272 32.3802C54.472 32.1114 54.2164 31.9152 53.9166 31.8349L42.612 28.8058ZM41.4004 33.3277C41.1005 33.2473 40.7811 33.2894 40.5123 33.4446C40.2435 33.5998 40.0473 33.8554 39.967 34.1552C39.8866 34.4551 39.9287 34.7745 40.0839 35.0433C40.2391 35.3121 40.4947 35.5083 40.7945 35.5886L43.0555 36.1944C43.3553 36.2747 43.6747 36.2327 43.9435 36.0775C44.2123 35.9223 44.4085 35.6667 44.4888 35.3669C44.5692 35.067 44.5271 34.7476 44.3719 34.4788C44.2167 34.21 43.9611 34.0138 43.6613 33.9335L41.4004 33.3277ZM48.1831 35.1451C47.8833 35.0648 47.5639 35.1068 47.295 35.262C47.0262 35.4172 46.8301 35.6729 46.7498 35.9727C46.6694 36.2725 46.7115 36.5919 46.8667 36.8607C47.0219 37.1296 47.2775 37.3257 47.5773 37.406L49.8382 38.0119C50.138 38.0922 50.4575 38.0501 50.7263 37.8949C50.9951 37.7397 51.1913 37.4841 51.2716 37.1843C51.3519 36.8845 51.3099 36.565 51.1547 36.2962C50.9995 36.0274 50.7439 35.8313 50.444 35.7509L48.1831 35.1451ZM54.9659 36.9626C54.6661 36.8822 54.3466 36.9243 54.0778 37.0795C53.809 37.2347 53.6129 37.4903 53.5325 37.7901C53.4522 38.0899 53.4942 38.4094 53.6494 38.6782C53.8046 38.947 54.0603 39.1431 54.3601 39.2235L56.621 39.8293C56.9208 39.9096 57.2403 39.8676 57.5091 39.7124C57.7779 39.5572 57.974 39.3016 58.0544 39.0017C58.1347 38.7019 58.0926 38.3825 57.9374 38.1137C57.7822 37.8448 57.5266 37.6487 57.2268 37.5684L54.9659 36.9626ZM61.7487 38.78C61.4488 38.6997 61.1294 38.7417 60.8606 38.8969C60.5918 39.0521 60.3956 39.3077 60.3153 39.6075C60.2349 39.9074 60.277 40.2268 60.4322 40.4956C60.5874 40.7644 60.843 40.9606 61.1428 41.0409L63.4038 41.6467C63.7036 41.7271 64.023 41.685 64.2918 41.5298C64.5606 41.3746 64.7568 41.119 64.8371 40.8192C64.9175 40.5194 64.8754 40.1999 64.7202 39.9311C64.565 39.6623 64.3094 39.4661 64.0096 39.3858L61.7487 38.78Z" fill="#FFD400"/>
<rect x="75.3847" y="24.6007" width="25.1111" height="34.95" rx="7.87037" transform="rotate(105 75.3847 24.6007)" stroke="#231F20" stroke-width="3"/>
<path fill-rule="evenodd" clip-rule="evenodd" d="M30.4563 42.9652C31.1041 43.1503 31.5799 43.6446 31.7694 44.2421L31.8843 44.0834L50.145 57.3049L50.1646 57.3192C51.6484 58.4222 53.5116 59.0356 55.4485 59.0356C57.3854 59.0356 59.2486 58.4222 60.7324 57.3192L60.7458 57.3093L78.7815 44.1431L79.276 44.8204C79.2775 43.9751 79.8374 43.1996 80.6917 42.9617C81.7208 42.6751 82.7874 43.277 83.074 44.306C83.6885 46.5125 83.5931 48.063 83.5232 49.1996L83.5232 49.1998C83.5039 49.5129 83.4866 49.7946 83.4865 50.05V50.0501V68.6652C83.4865 70.4956 82.7026 72.2194 81.3598 73.467C80.0217 74.7102 78.2354 75.3862 76.4 75.3862H34.3933C32.5579 75.3862 30.7716 74.7102 29.4335 73.467C28.0907 72.2194 27.3067 70.4956 27.3067 68.6652C27.3067 68.6502 27.3069 68.6351 27.3073 68.6201L27.7533 49.4734C27.7524 49.2282 27.7357 48.949 27.7171 48.6386C27.6514 47.541 27.5623 46.0528 28.065 44.2936C28.3585 43.2664 29.4291 42.6717 30.4563 42.9652ZM31.1777 68.5829L31.1753 68.6845C31.1807 69.3868 31.4823 70.0901 32.0666 70.6329C32.5187 71.0529 33.1097 71.3459 33.7617 71.4621C32.7455 70.6574 31.87 69.6832 31.1777 68.5829ZM77.3402 71.3928C77.8695 71.2487 78.3471 70.9856 78.7267 70.6329C79.2401 70.156 79.5352 69.5551 79.603 68.9399C78.9725 69.8633 78.2094 70.6904 77.3402 71.3928Z" fill="#FFD400"/>
<path d="M28.8524 42.7612L48.4902 58.1915C50.4798 59.7833 52.9519 60.6506 55.4999 60.6506C58.0479 60.6506 60.52 59.7833 62.5096 58.1915L82.1474 42.7612" stroke="#231F20" stroke-width="5" stroke-linejoin="round"/>
</svg>
